double_pendulum_states
version=1
nRows=129
nColumns=5
inDegrees=yes

# SIMM Motion File Header:
name double_pendulum_states
datacolumns 5
datarows 129
otherdata 1
range 6.80390854 9.40005872
endheader
time	/jointset/pin1/q1/value	/jointset/pin1/q1/speed	/jointset/pin2/q2/value	/jointset/pin2/q2/speed
      6.80390854	     58.69176141	    122.82356561	    -11.63801462	     -4.19984595
      6.82406195	     60.92957720	     99.25416850	    -11.41228915	     26.43230266
      6.84421536	     62.69301640	     75.77722287	    -10.58033100	     55.92144805
      6.87178392	     64.34396934	     44.10413880	     -8.50659945	     94.07330652
      6.89844174	     65.12009005	     14.28880718	     -5.53724108	    128.21093155
      6.92509956	     65.11646745	    -14.31940012	     -1.70015647	    159.04382650
      6.95175739	     64.37193985	    -41.20282166	      2.90417202	    185.57273021
      6.97841521	     62.94023098	    -65.78138375	      8.14374616	    206.47420789
      7.00463793	     60.92759856	    -87.24992506	     13.75526328	    220.33198381
      7.03086066	     58.38944888	   -105.86429335	     19.63509383	    226.89369469
      7.05708339	     55.39901259	   -121.79783105	     25.59168603	    226.25717445
      7.09022253	     51.07362069	   -138.70621085	     32.94896600	    216.14447000
      7.12336167	     46.23773729	   -152.70317185	     39.81759771	    196.97188798
      7.15650082	     40.98129708	   -164.08481646	     45.91370929	    169.59727708
      7.18963996	     35.39495453	   -172.49833382	     50.96870811	    134.09398745
      7.22277910	     29.59209618	   -176.93193999	     54.70581809	     89.93918408
      7.25591824	     23.72948643	   -175.80122094	     56.82480207	     36.27943144
      7.28470186	     18.75510602	   -168.77590226	     57.09589861	    -18.82579670
      7.30940177	     14.71810524	   -157.17198995	     55.97531168	    -73.02710754
      7.33410167	     11.04028481	   -139.56923056	     53.43041814	   -134.27714013
      7.35880157	      7.87819647	   -115.32447142	     49.27699704	   -203.43742418
      7.38068485	      5.64336605	    -88.01061542	     44.08660593	   -272.16042641
      7.39609448	      4.45684894	    -65.56710094	     39.49003071	   -325.03689916
      7.40854174	      3.76267788	    -45.75122152	     35.16474797	   -370.27714905
      7.41922774	      3.36876238	    -27.88028604	     30.99418847	   -410.42605437
      7.42991374	      3.16780087	     -9.74782722	     26.39204469	   -450.84755479
      7.43920750	      3.14909218	      5.58873419	     22.04205558	   -484.96787035
      7.44850127	      3.26784655	     19.67682204	     17.38598026	   -516.38712561
      7.45779503	      3.50771585	     31.46053675	     12.45897894	   -542.85705940
      7.46736639	      3.85285599	     39.93704794	      7.16294414	   -562.22368999
      7.47526594	      4.18403661	     43.31771238	      2.68436768	   -570.37027008
      7.48316548	      4.52745128	     42.99776954	     -1.82711204	   -570.47255550
      7.49106502	      4.85349822	     38.94767994	     -6.30712964	   -562.46505588
      7.49896456	      5.13382552	     31.50502176	    -10.69409844	   -547.09739382
      7.50686411	      5.34389866	     21.27588447	    -14.93488366	   -525.70736888
      7.51640634	      5.47704387	      6.23498517	    -19.80451352	   -494.08879401
      7.52594858	      5.45722530	    -10.59716093	    -24.35207648	   -458.59993164
      7.53549081	      5.27229321	    -28.23019106	    -28.55097386	   -421.29831067
      7.54503305	      4.91822158	    -45.95047411	    -32.39112913	   -383.59547298
      7.55457529	      4.39660892	    -63.28314127	    -35.87323086	   -346.36061260
      7.56411752	      3.71269520	    -79.92938643	    -39.00429337	   -310.07584010
      7.57687507	      2.55799757	   -100.81184567	    -42.66018047	   -263.43012335
      7.59236713	      0.81478304	   -123.78285765	    -46.32180851	   -209.83520541
      7.61232449	     -1.91803809	   -149.31902367	    -49.85936767	   -145.53017588
      7.63975904	     -6.41428646	   -177.08312137	    -52.72700323	    -64.93773614
      7.66367481	    -10.87318937	   -194.86398321	    -53.50636116	     -1.18732230
      7.68759059	    -15.69326752	   -207.42392765	    -52.82712360	     57.12111472
      7.71150637	    -20.75991938	   -215.63463326	    -50.81418106	    110.40612134
      7.74025156	    -27.04575624	   -221.00094159	    -46.79365140	    168.22178491
      7.76899675	    -33.43016005	   -222.66980856	    -41.20637054	    219.39702093
      7.79241698	    -38.63878793	   -221.80241733	    -35.63176510	    255.78501576
      7.81583721	    -43.80327150	   -218.83243509	    -29.27119662	    286.24703657
      7.83925745	    -48.86719214	   -213.04506162	    -22.28663858	    308.62059867
      7.86267768	    -53.75077594	   -203.20468632	    -14.90230145	    319.85374797
      7.88193483	    -57.55436246	   -191.19094505	     -8.73747095	    318.76881634
      7.90119199	    -61.08953228	   -175.33774023	     -2.68837285	    307.90416802
      7.92044914	    -64.28510563	   -156.03784099	      3.06601542	    288.48847394
      7.93970629	    -67.08283307	   -134.18970664	      8.38317365	    262.94554128
      7.95966849	    -69.52140840	   -109.94113975	     13.33557785	    232.82717178
      7.97963069	    -71.46739758	    -84.96018549	     17.66939383	    201.27463234
      7.99959289	    -72.91229952	    -59.80210613	     21.37102288	    169.63895595
      8.01955509	    -73.85551972	    -34.71989214	     24.44529679	    138.45712735
      8.03951729	    -74.29937838	     -9.76978136	     26.90190227	    107.72269016
      8.06456932	    -74.15313861	     21.43908520	     29.11952836	     69.27690617
      8.09473645	    -72.93842908	     59.14623955	     30.49935804	     21.85679517
      8.12362378	    -70.70287078	     95.74118027	     30.44283591	    -26.37282426
      8.14682569	    -68.13499624	    125.70864416	     29.35178237	    -68.20471830
      8.16693184	    -65.34204544	    152.19549098	     27.59282053	   -107.21235812
      8.18703799	    -62.01158191	    179.16555533	     25.02233034	   -148.91369158
      8.20466102	    -58.64364476	    203.07615606	     22.06126926	   -187.37128594
      8.22228404	    -54.85430463	    226.91242615	     18.41286744	   -226.70381642
      8.23990706	    -50.65005166	    250.01832128	     14.07605000	   -265.09916210
      8.25753009	    -46.05289853	    271.27369976	      9.09225716	   -299.51208876
      8.27515311	    -41.10875251	    289.11451813	      3.56738276	   -325.74954323
      8.29121578	    -36.36298839	    301.00233036	     -1.78583588	   -338.81723975
      8.30727845	    -31.46615877	    307.84181419	     -7.24881594	   -339.19318880
      8.32334111	    -26.50115338	    309.54105608	    -12.61265404	   -326.60111794
      8.33940378	    -21.54641876	    306.70208366	    -17.67992095	   -302.64445755
      8.35820180	    -15.84821973	    298.84722780	    -23.01782394	   -263.62197675
      8.37699983	    -10.33364416	    287.34680402	    -27.54084322	   -216.53613845
      8.39579785	     -5.06272742	    273.01509247	    -31.12695733	   -164.33180350
      8.41459588	     -0.08491384	    256.18808480	    -33.69864473	   -108.83428270
      8.43339390	      4.55356951	    236.90473434	    -35.20458077	    -51.06443064
      8.45219193	      8.80589024	    215.08860883	    -35.60767694	      8.43701546
      8.47098995	     12.62381832	    190.68741266	    -34.87841659	     69.37162354
      8.48980603	     15.96218292	    163.75462090	    -32.98971660	    131.55446538
      8.50862210	     18.77245909	    134.63865200	    -29.92279378	    194.50279045
      8.52442521	     20.69867514	    109.02170016	    -26.43136905	    247.25521269
      8.54022832	     22.21690893	     83.17630340	    -22.11523777	    298.58766244
      8.55368847	     23.19211974	     61.94234059	    -17.81686452	    339.47865436
      8.56714862	     23.89298893	     42.63097283	    -12.99838634	    375.43347860
      8.58060877	     24.35471831	     26.65403235	     -7.74511501	    403.57562391
      8.59140101	     24.58835824	     17.20178388	     -3.30227301	    418.50480814
      8.60219325	     24.73883966	     11.30034939	      1.25922617	    425.44361945
      8.61298549	     24.84561580	      9.09056266	      5.85077171	    424.10128159
      8.62377772	     24.94738993	     10.29524976	     10.38555555	    415.09747437
      8.63456996	     25.07793805	     14.30185646	     14.78766584	    399.77948499
      8.64726830	     25.30327299	     21.54770903	     19.71831824	    375.96984748
      8.65996664	     25.63172593	     30.35065653	     24.32038977	    348.43689018
      8.67266497	     26.07630456	     39.69194971	     28.56088479	    319.32345814
      8.68536331	     26.63891264	     48.84159964	     32.42987077	    290.12225597
      8.69806164	     27.31386137	     57.32413931	     35.93269093	    261.77057534
      8.71075998	     28.09070098	     64.85428620	     39.08388854	    234.80587727
      8.72694008	     29.20714535	     72.83388794	     42.62092175	    202.87665771
      8.74312017	     30.43723012	     78.89236323	     45.66474680	    173.85541407
      8.76619388	     32.32641017	     84.22360520	     49.24548233	    137.48301321
      8.79585737	     34.86131530	     85.73871797	     52.72943069	     98.87669262
      8.83565452	     38.18040086	     79.66126924	     55.84275569	     59.83781212
      8.87545168	     41.10493320	     66.27045699	     57.65375356	     32.97272695
      8.91524884	     43.38592938	     47.65289651	     58.59158130	     15.47685360
      8.95504599	     44.85367878	     25.69924798	     58.97075240	      4.39174537
      8.99484315	     45.40992294	      2.11905313	     58.98512264	     -3.38171037
      9.04322324	     44.81645328	    -26.41945627	     58.60041633	    -12.96937632
      9.09160333	     42.89966379	    -52.08939429	     57.64099695	    -28.08081398
      9.13187357	     40.44384606	    -69.02341813	     56.12278564	    -48.85170664
      9.17214381	     37.42308408	    -79.79704994	     53.56324921	    -80.28421264
      9.21241405	     34.12854443	    -82.26110347	     49.47549037	   -125.20306165
      9.24120397	     31.81116773	    -77.79220012	     45.28975948	   -167.00442141
      9.26362178	     30.14426747	    -70.32955969	     41.12294612	   -205.63441767
      9.28202898	     28.92658687	    -61.59929940	     37.01480495	   -241.29267277
      9.29763655	     28.03398085	    -52.55978613	     32.99648580	   -273.94333205
      9.31148006	     27.36752050	    -43.61861957	     28.99602776	   -304.12889626
      9.32532357	     26.82791539	    -34.34280174	     24.57547071	   -334.41495614
      9.33916708	     26.41446274	    -25.56098528	     19.74426831	   -363.10746390
      9.35301059	     26.11250166	    -18.46205982	     14.54086126	   -387.70597467
      9.36685409	     25.88874882	    -14.51737209	      9.04331147	   -405.04985017
      9.37792230	     25.73052491	    -14.61714030	      4.51736221	   -411.55182239
      9.38899051	     25.55230743	    -18.18967811	     -0.03796889	   -410.22652576
      9.40005872	     25.31441665	    -25.39121247	     -4.53324301	   -400.71560774
